HIERARCHY
ROOT mixamorig:Hips
{
	OFFSET 0.000000 104.274902 0.000000
	CHANNELS 6 Xposition Yposition Zposition Xrotation Yrotation Zrotation
	JOINT mixamorig:Spine
	{
		OFFSET 0.000000 10.181549 0.131524
		CHANNELS 6 Xposition Yposition Zposition Xrotation Yrotation Zrotation
		JOINT mixamorig:Spine1
		{
			OFFSET 0.000000 9.893990 -1.470706
			CHANNELS 3 Xrotation Yrotation Zrotation
			JOINT mixamorig:Spine2
			{
				OFFSET 0.000000 9.220787 -1.370637
				CHANNELS 3 Xrotation Yrotation Zrotation
				JOINT mixamorig:Neck
				{
					OFFSET 0.000000 16.740372 -2.049022
					CHANNELS 6 Xposition Yposition Zposition Xrotation Yrotation Zrotation
					JOINT mixamorig:Head
					{
						OFFSET 0.000000 9.617859 1.684976
						CHANNELS 6 Xposition Yposition Zposition Xrotation Yrotation Zrotation
						JOINT mixamorig:HeadTop_End
						{
							OFFSET 0.000000 22.037384 7.501072
							CHANNELS 6 Xposition Yposition Zposition Xrotation Yrotation Zrotation
							End Site
							{
								OFFSET 0.000000 23.106567 -2.828246
							}
						}
					}
				}
				JOINT mixamorig:RightShoulder
				{
					OFFSET -4.570000 11.014877 -2.160840
					CHANNELS 6 Xposition Yposition Zposition Xrotation Yrotation Zrotation
					JOINT mixamorig:RightArm
					{
						OFFSET -10.592867 -0.524796 -2.232105
						CHANNELS 3 Xrotation Yrotation Zrotation
						JOINT mixamorig:RightForeArm
						{
							OFFSET -27.841497 0.000000 -0.000002
							CHANNELS 3 Xrotation Yrotation Zrotation
							JOINT mixamorig:RightHand
							{
								OFFSET -28.328812 0.000000 -0.000001
								CHANNELS 3 Xrotation Yrotation Zrotation
								JOINT mixamorig:RightHandThumb1
								{
									OFFSET -2.464798 -1.573990 2.681911
									CHANNELS 6 Xposition Yposition Zposition Xrotation Yrotation Zrotation
									JOINT mixamorig:RightHandThumb2
									{
										OFFSET -3.244781 -1.873383 1.873376
										CHANNELS 3 Xrotation Yrotation Zrotation
										JOINT mixamorig:RightHandThumb3
										{
											OFFSET -2.646263 -1.527817 1.527818
											CHANNELS 6 Xposition Yposition Zposition Xrotation Yrotation Zrotation
											JOINT mixamorig:RightHandThumb4
											{
												OFFSET -1.994591 -1.151581 1.151575
												CHANNELS 6 Xposition Yposition Zposition Xrotation Yrotation Zrotation
												End Site
												{
													OFFSET -1.860176 -1.142715 1.365483
												}
											}
										}
									}
								}
								JOINT mixamorig:RightHandIndex1
								{
									OFFSET -9.108299 -0.517883 2.259803
									CHANNELS 6 Xposition Yposition Zposition Xrotation Yrotation Zrotation
									JOINT mixamorig:RightHandIndex2
									{
										OFFSET -3.699997 0.000000 0.000000
										CHANNELS 3 Xrotation Yrotation Zrotation
										JOINT mixamorig:RightHandIndex3
										{
											OFFSET -2.850006 0.000000 0.000000
											CHANNELS 3 Xrotation Yrotation Zrotation
											JOINT mixamorig:RightHandIndex4
											{
												OFFSET -2.772194 0.000000 0.000000
												CHANNELS 3 Xrotation Yrotation Zrotation
												End Site
												{
													OFFSET -2.772202 0.000000 -0.000484
												}
											}
										}
									}
								}
								JOINT mixamorig:RightHandMiddle1
								{
									OFFSET -9.532501 0.000000 -0.000000
									CHANNELS 6 Xposition Yposition Zposition Xrotation Yrotation Zrotation
									JOINT mixamorig:RightHandMiddle2
									{
										OFFSET -3.699997 0.000000 0.000000
										CHANNELS 3 Xrotation Yrotation Zrotation
										JOINT mixamorig:RightHandMiddle3
										{
											OFFSET -2.949997 0.000000 0.000000
											CHANNELS 3 Xrotation Yrotation Zrotation
											JOINT mixamorig:RightHandMiddle4
											{
												OFFSET -2.946594 0.000000 0.000000
												CHANNELS 3 Xrotation Yrotation Zrotation
												End Site
												{
													OFFSET -2.946602 0.000000 -0.000982
												}
											}
										}
									}
								}
								JOINT mixamorig:RightHandRing1
								{
									OFFSET -9.103600 -0.043106 -1.865100
									CHANNELS 6 Xposition Yposition Zposition Xrotation Yrotation Zrotation
									JOINT mixamorig:RightHandRing2
									{
										OFFSET -3.379303 0.000000 0.000000
										CHANNELS 3 Xrotation Yrotation Zrotation
										JOINT mixamorig:RightHandRing3
										{
											OFFSET -2.889694 0.000000 0.000000
											CHANNELS 3 Xrotation Yrotation Zrotation
											JOINT mixamorig:RightHandRing4
											{
												OFFSET -2.638802 0.000000 0.000000
												CHANNELS 3 Xrotation Yrotation Zrotation
												End Site
												{
													OFFSET -2.638802 0.000000 0.004218
												}
											}
										}
									}
								}
								JOINT mixamorig:RightHandPinky1
								{
									OFFSET -8.076698 -0.486725 -3.806299
									CHANNELS 6 Xposition Yposition Zposition Xrotation Yrotation Zrotation
									JOINT mixamorig:RightHandPinky2
									{
										OFFSET -3.600006 0.000000 0.000000
										CHANNELS 3 Xrotation Yrotation Zrotation
										JOINT mixamorig:RightHandPinky3
										{
											OFFSET -2.099998 0.000000 0.000000
											CHANNELS 3 Xrotation Yrotation Zrotation
											JOINT mixamorig:RightHandPinky4
											{
												OFFSET -2.115791 0.000000 0.000000
												CHANNELS 3 Xrotation Yrotation Zrotation
												End Site
												{
													OFFSET -2.115799 0.000000 0.000174
												}
											}
										}
									}
								}
							}
						}
					}
				}
				JOINT mixamorig:LeftShoulder
				{
					OFFSET 4.570400 11.014679 -2.160816
					CHANNELS 6 Xposition Yposition Zposition Xrotation Yrotation Zrotation
					JOINT mixamorig:LeftArm
					{
						OFFSET 10.592373 -0.524597 -2.232116
						CHANNELS 3 Xrotation Yrotation Zrotation
						JOINT mixamorig:LeftForeArm
						{
							OFFSET 27.841488 0.000000 0.000001
							CHANNELS 3 Xrotation Yrotation Zrotation
							JOINT mixamorig:LeftHand
							{
								OFFSET 28.328808 0.000000 -0.000000
								CHANNELS 3 Xrotation Yrotation Zrotation
								JOINT mixamorig:LeftHandThumb1
								{
									OFFSET 2.466103 -1.576202 2.681698
									CHANNELS 6 Xposition Yposition Zposition Xrotation Yrotation Zrotation
									JOINT mixamorig:LeftHandThumb2
									{
										OFFSET 3.243317 -1.872528 1.872530
										CHANNELS 3 Xrotation Yrotation Zrotation
										JOINT mixamorig:LeftHandThumb3
										{
											OFFSET 2.647881 -1.528763 1.528754
											CHANNELS 6 Xposition Yposition Zposition Xrotation Yrotation Zrotation
											JOINT mixamorig:LeftHandThumb4
											{
												OFFSET 1.998924 -1.154083 1.154080
												CHANNELS 6 Xposition Yposition Zposition Xrotation Yrotation Zrotation
												End Site
												{
													OFFSET 1.884041 -1.149155 1.337651
												}
											}
										}
									}
								}
								JOINT mixamorig:LeftHandIndex1
								{
									OFFSET 9.109299 -0.518005 2.259900
									CHANNELS 6 Xposition Yposition Zposition Xrotation Yrotation Zrotation
									JOINT mixamorig:LeftHandIndex2
									{
										OFFSET 3.699997 0.000000 0.000000
										CHANNELS 3 Xrotation Yrotation Zrotation
										JOINT mixamorig:LeftHandIndex3
										{
											OFFSET 2.850006 0.000000 0.000000
											CHANNELS 3 Xrotation Yrotation Zrotation
											JOINT mixamorig:LeftHandIndex4
											{
												OFFSET 2.774895 0.000000 0.000000
												CHANNELS 3 Xrotation Yrotation Zrotation
												End Site
												{
													OFFSET 2.774902 0.000000 -0.000072
												}
											}
										}
									}
								}
								JOINT mixamorig:LeftHandMiddle1
								{
									OFFSET 9.533401 0.000000 0.000000
									CHANNELS 6 Xposition Yposition Zposition Xrotation Yrotation Zrotation
									JOINT mixamorig:LeftHandMiddle2
									{
										OFFSET 3.699997 0.000000 0.000000
										CHANNELS 3 Xrotation Yrotation Zrotation
										JOINT mixamorig:LeftHandMiddle3
										{
											OFFSET 2.949997 0.000000 0.000000
											CHANNELS 3 Xrotation Yrotation Zrotation
											JOINT mixamorig:LeftHandMiddle4
											{
												OFFSET 2.952896 0.000000 0.000000
												CHANNELS 3 Xrotation Yrotation Zrotation
												End Site
												{
													OFFSET 2.952904 0.000000 0.000165
												}
											}
										}
									}
								}
								JOINT mixamorig:LeftHandRing1
								{
									OFFSET 9.104500 -0.042999 -1.865101
									CHANNELS 6 Xposition Yposition Zposition Xrotation Yrotation Zrotation
									JOINT mixamorig:LeftHandRing2
									{
										OFFSET 3.149994 0.000000 0.000000
										CHANNELS 3 Xrotation Yrotation Zrotation
										JOINT mixamorig:LeftHandRing3
										{
											OFFSET 2.950005 0.000000 0.000000
											CHANNELS 3 Xrotation Yrotation Zrotation
											JOINT mixamorig:LeftHandRing4
											{
												OFFSET 2.644302 0.000000 0.000000
												CHANNELS 3 Xrotation Yrotation Zrotation
												End Site
												{
													OFFSET 2.644302 0.000000 0.000083
												}
											}
										}
									}
								}
								JOINT mixamorig:LeftHandPinky1
								{
									OFFSET 8.077805 -0.486893 -3.806302
									CHANNELS 6 Xposition Yposition Zposition Xrotation Yrotation Zrotation
									JOINT mixamorig:LeftHandPinky2
									{
										OFFSET 3.600006 0.000000 0.000000
										CHANNELS 3 Xrotation Yrotation Zrotation
										JOINT mixamorig:LeftHandPinky3
										{
											OFFSET 2.099998 0.000000 0.000000
											CHANNELS 3 Xrotation Yrotation Zrotation
											JOINT mixamorig:LeftHandPinky4
											{
												OFFSET 2.125496 0.000000 0.000000
												CHANNELS 3 Xrotation Yrotation Zrotation
												End Site
												{
													OFFSET 2.125504 0.000000 -0.001254
												}
											}
										}
									}
								}
							}
						}
					}
				}
			}
		}
	}
	JOINT mixamorig:RightUpLeg
	{
		OFFSET -8.207800 -6.751701 -1.599544
		CHANNELS 6 Xposition Yposition Zposition Xrotation Yrotation Zrotation
		JOINT mixamorig:RightLeg
		{
			OFFSET 0.000004 -44.370152 0.345934
			CHANNELS 3 Xrotation Yrotation Zrotation
			JOINT mixamorig:RightFoot
			{
				OFFSET 0.000004 -44.423664 -3.043535
				CHANNELS 3 Xrotation Yrotation Zrotation
				JOINT mixamorig:RightToeBase
				{
					OFFSET 0.000001 -8.728691 10.710592
					CHANNELS 3 Xrotation Yrotation Zrotation
					JOINT mixamorig:RightToe_End
					{
						OFFSET 0.000000 -0.000665 9.278101
						CHANNELS 3 Xrotation Yrotation Zrotation
						End Site
						{
							OFFSET 0.000000 -0.000665 9.278103
						}
					}
				}
			}
		}
	}
	JOINT mixamorig:LeftUpLeg
	{
		OFFSET 8.207800 -6.751701 -1.599544
		CHANNELS 6 Xposition Yposition Zposition Xrotation Yrotation Zrotation
		JOINT mixamorig:LeftLeg
		{
			OFFSET 0.000004 -44.370037 0.346940
			CHANNELS 3 Xrotation Yrotation Zrotation
			JOINT mixamorig:LeftFoot
			{
				OFFSET 0.000004 -44.423611 -3.044388
				CHANNELS 3 Xrotation Yrotation Zrotation
				JOINT mixamorig:LeftToeBase
				{
					OFFSET 0.000001 -8.728690 10.710592
					CHANNELS 3 Xrotation Yrotation Zrotation
					JOINT mixamorig:LeftToe_End
					{
						OFFSET 0.000000 -0.000680 9.278101
						CHANNELS 3 Xrotation Yrotation Zrotation
						End Site
						{
							OFFSET 0.000000 -0.000680 9.278101
						}
					}
				}
			}
		}
	}
}
MOTION
Frames: 4
Frame Time: 0.033333
11.544588 90.605492 40.250851 -1.082813 -18.413411 -3.210824 0.000001 10.181536 0.131525 22.989361 3.852288 -4.788150 0.372807 0.421228 2.521584 0.351975 0.532637 2.504256 -0.000001 16.740351 -2.049022 8.373622 -0.384225 -2.768729 -0.000000 9.617855 1.684972 12.200802 -2.835386 -7.676260 0.000001 22.037384 7.501077 0.000000 -0.000001 -0.000001 -4.570001 11.014864 -2.160835 2.835889 19.003012 -5.800404 -17.616931 6.918484 52.010077 0.000150 118.239522 -0.000082 -8.129867 10.617016 -18.796819 -2.464804 -1.573986 2.681894 32.408438 -13.409026 14.972820 6.468314 -18.913472 -13.319882 -2.646274 -1.527799 1.527825 60.020636 -57.623034 30.237927 -1.994593 -1.151581 1.151583 -0.000001 0.000002 0.000001 -9.108304 -0.517873 2.259789 8.398455 -6.795934 102.075989 9.722827 -6.372683 113.587494 9.722814 -6.372711 113.587473 0.000000 0.000000 0.000001 -9.532505 -0.000011 -0.000006 8.473290 -6.779639 102.897490 9.760538 -6.356202 113.927726 9.819577 -6.540610 113.765086 -0.000000 0.000002 -0.000001 -9.103618 -0.043100 -1.865104 5.565195 -7.132962 96.068188 8.903096 -6.668847 106.378687 8.762300 -6.408012 105.842818 0.000000 -0.000001 0.000004 -8.076706 -0.486744 -3.806308 -0.217566 -9.282900 106.046726 7.927450 -6.879203 98.121357 7.927441 -6.879221 98.121336 -0.000001 -0.000000 0.000002 4.570399 11.014682 -2.160811 1.153638 -4.344884 -1.155537 -33.232115 -17.274602 -47.485234 -0.000002 -120.156100 0.000006 2.271182 -7.660329 17.480602 2.466095 -1.576193 2.681697 2.825239 10.329820 0.827374 6.817478 15.268497 2.201389 2.647884 -1.528741 1.528756 16.493899 15.543801 -13.682339 1.998913 -1.154087 1.154078 0.000001 0.000000 0.000001 9.109278 -0.518006 2.259895 2.622327 5.410004 -51.696250 5.986515 6.823211 -82.511670 3.423527 5.953148 -59.776040 0.000002 0.000001 0.000003 9.533417 0.000001 0.000000 2.092833 4.947890 -46.064425 5.220648 6.678919 -76.003565 2.704711 5.473786 -52.565126 0.000002 -0.000001 -0.000002 9.104516 -0.042996 -1.865102 2.389438 5.219616 -50.118794 5.674799 6.775277 -79.879206 2.984458 5.676042 -55.444071 -0.000001 -0.000000 -0.000003 8.077800 -0.486895 -3.806300 3.934097 6.575526 -48.514451 5.282873 2.607346 -76.579275 2.606517 5.397544 -51.528528 -0.000001 -0.000001 -0.000001 -8.207808 -6.751708 -1.599549 -11.775241 -13.086850 -24.866513 54.073498 7.088990 -6.285130 -10.791069 -2.132175 14.733034 -3.703404 -0.001079 0.325405 0.000000 0.000001 0.000000 8.207799 -6.751702 -1.599556 -44.504676 4.267768 16.135101 45.453082 -8.764618 5.592124 0.309255 -1.128906 -10.770936 -4.217067 -0.000000 -0.000000 -0.000000 -0.000001 0.000000 
11.041258 90.232803 38.555000 -2.483810 -23.483201 -3.367533 -0.000001 10.181580 0.131530 22.656241 3.376548 -4.869177 0.254820 0.383586 2.193676 0.237973 0.478051 2.177652 -0.000003 16.740362 -2.049018 8.347564 -0.035515 -3.776186 -0.000000 9.617808 1.684975 12.902994 -1.432507 -10.435674 -0.000001 22.037354 7.501062 0.000001 0.000000 -0.000000 -4.570000 11.014879 -2.160836 2.447613 18.103024 -6.725266 -19.717655 11.054447 57.125762 0.000162 120.161578 -0.000088 -7.045484 12.738804 -22.478200 -2.464788 -1.573982 2.681898 32.408438 -13.409030 14.972818 6.468315 -18.913472 -13.319884 -2.646263 -1.527793 1.527830 60.020629 -57.623028 30.237927 -1.994583 -1.151583 1.151588 0.000003 -0.000005 -0.000000 -9.108309 -0.517873 2.259795 8.398455 -6.795926 102.075989 9.722827 -6.372684 113.587494 9.722814 -6.372714 113.587473 0.000000 -0.000001 0.000001 -9.532512 -0.000004 -0.000005 8.473292 -6.779634 102.897483 9.760541 -6.356204 113.927726 9.819570 -6.540613 113.765079 0.000002 -0.000000 0.000001 -9.103608 -0.043105 -1.865102 5.565193 -7.132954 96.068182 8.903104 -6.668848 106.378687 8.762294 -6.408014 105.842818 -0.000002 -0.000001 -0.000001 -8.076700 -0.486713 -3.806300 -0.217568 -9.282896 106.046719 7.927450 -6.879205 98.121357 7.927443 -6.879216 98.121336 0.000002 -0.000001 -0.000000 4.570401 11.014689 -2.160813 1.116109 -4.039939 -1.216439 -32.874988 -15.005478 -48.170736 0.000023 -120.840349 0.000019 3.349953 -8.117262 17.594422 2.466104 -1.576197 2.681689 2.825242 10.329822 0.827373 6.817476 15.268500 2.201387 2.647886 -1.528777 1.528764 16.493903 15.543800 -13.682340 1.998913 -1.154088 1.154081 0.000003 -0.000003 -0.000002 9.109301 -0.518017 2.259892 2.622328 5.410006 -51.696247 5.986515 6.823212 -82.511670 3.423522 5.953150 -59.776040 -0.000001 0.000001 0.000001 9.533394 0.000002 -0.000005 2.092835 4.947888 -46.064421 5.220648 6.678920 -76.003558 2.704710 5.473787 -52.565126 -0.000000 -0.000002 0.000000 9.104515 -0.043000 -1.865111 2.389437 5.219619 -50.118794 5.674798 6.775275 -79.879199 2.984460 5.676047 -55.444074 0.000000 -0.000002 0.000005 8.077811 -0.486899 -3.806304 3.934098 6.575527 -48.514451 5.282881 2.607343 -76.579275 2.606519 5.397549 -51.528528 0.000001 -0.000003 -0.000000 -8.207799 -6.751689 -1.599538 -12.702400 -12.511355 -25.670489 54.867408 5.409768 -6.864905 -10.893276 -2.183458 15.088719 -4.531242 -0.016741 1.280552 0.000000 0.000000 -0.000001 8.207801 -6.751681 -1.599539 -42.935358 5.206787 18.504690 44.954546 -7.991059 5.872660 0.436292 0.615043 -12.556388 -3.832073 -0.000001 0.000001 -0.000000 0.000000 0.000000 
10.103117 89.866875 36.474648 -3.597855 -27.043349 -3.306058 -0.000001 10.181544 0.131526 21.923671 3.185997 -4.816194 0.334978 0.373226 1.997607 0.320072 0.456776 1.983117 0.000005 16.740374 -2.049018 8.258092 0.190994 -4.618706 -0.000006 9.617862 1.684972 12.999117 -0.649806 -12.475551 0.000000 22.037369 7.501076 0.000002 -0.000001 0.000001 -4.569998 11.014894 -2.160842 2.192356 17.344437 -7.185788 -20.221835 15.152269 60.764621 0.000134 121.029887 -0.000076 -5.176592 14.192052 -24.577596 -2.464792 -1.573985 2.681907 32.408442 -13.409027 14.972815 6.468310 -18.913475 -13.319883 -2.646263 -1.527797 1.527826 60.020629 -57.623028 30.237930 -1.994617 -1.151590 1.151573 -0.000000 -0.000006 0.000001 -9.108304 -0.517885 2.259799 8.398455 -6.795934 102.075989 9.722833 -6.372686 113.587501 9.722822 -6.372707 113.587473 0.000001 -0.000001 0.000001 -9.532505 -0.000004 0.000004 8.473288 -6.779638 102.897490 9.760538 -6.356205 113.927726 9.819571 -6.540613 113.765086 -0.000001 -0.000002 -0.000001 -9.103592 -0.043103 -1.865098 5.565195 -7.132954 96.068182 8.903101 -6.668849 106.378687 8.762297 -6.408016 105.842818 -0.000001 0.000001 0.000002 -8.076698 -0.486713 -3.806299 -0.217567 -9.282896 106.046726 7.927454 -6.879208 98.121357 7.927443 -6.879219 98.121336 -0.000002 -0.000002 0.000002 4.570402 11.014688 -2.160814 1.109627 -3.847841 -1.453219 -31.876913 -12.843771 -49.747112 -0.000001 -121.658565 0.000007 3.770231 -8.465151 17.891199 2.466101 -1.576193 2.681699 2.825240 10.329821 0.827371 6.817476 15.268504 2.201392 2.647880 -1.528769 1.528754 16.493901 15.543803 -13.682338 1.998929 -1.154099 1.154076 0.000001 0.000000 -0.000002 9.109297 -0.518018 2.259901 2.622324 5.410011 -51.696250 5.986516 6.823210 -82.511670 3.423521 5.953148 -59.776040 0.000000 0.000001 -0.000003 9.533417 0.000001 0.000004 2.092834 4.947892 -46.064425 5.220647 6.678920 -76.003558 2.704708 5.473787 -52.565126 -0.000000 -0.000002 -0.000002 9.104515 -0.042985 -1.865091 2.389436 5.219622 -50.118791 5.674796 6.775277 -79.879206 2.984455 5.676046 -55.444074 -0.000002 -0.000002 0.000007 8.077807 -0.486880 -3.806292 3.934098 6.575527 -48.514451 5.282875 2.607343 -76.579282 2.606520 5.397549 -51.528528 -0.000000 -0.000000 -0.000002 -8.207807 -6.751700 -1.599545 -12.648918 -12.490702 -25.583237 54.760526 3.993582 -7.069654 -11.208182 -2.653993 17.961036 -7.904340 -0.099804 3.121720 -0.000000 0.000001 0.000000 8.207796 -6.751709 -1.599544 -41.502651 6.087834 20.345081 43.313870 -6.643804 6.190417 1.500600 0.563843 -14.375649 -3.542302 0.000003 -0.000001 -0.000000 -0.000002 0.000000 
8.777802 89.573174 33.927498 -4.258260 -29.350272 -2.902208 -0.000000 10.181553 0.131527 20.867058 3.292117 -4.806857 0.648423 0.401640 1.838681 0.633914 0.477268 1.825873 0.000003 16.740362 -2.049024 8.051696 0.381869 -5.311446 -0.000002 9.617848 1.684975 12.928616 -0.184836 -13.565343 0.000001 22.037369 7.501077 0.000002 -0.000002 0.000001 -4.569999 11.014873 -2.160842 2.181254 17.383059 -7.267082 -19.723187 18.006107 62.922086 0.000140 121.462101 -0.000079 -2.475644 14.513937 -25.581359 -2.464780 -1.573987 2.681899 32.408442 -13.409030 14.972816 6.468315 -18.913475 -13.319884 -2.646278 -1.527806 1.527807 60.020629 -57.623028 30.237930 -1.994586 -1.151599 1.151567 0.000003 -0.000004 -0.000002 -9.108301 -0.517881 2.259796 8.398454 -6.795924 102.075989 9.722837 -6.372687 113.587494 9.722816 -6.372710 113.587473 -0.000001 -0.000001 0.000001 -9.532502 0.000004 -0.000004 8.473291 -6.779634 102.897483 9.760536 -6.356206 113.927726 9.819576 -6.540610 113.765086 -0.000000 0.000000 -0.000000 -9.103592 -0.043095 -1.865101 5.565195 -7.132951 96.068182 8.903095 -6.668848 106.378687 8.762298 -6.408018 105.842818 0.000000 -0.000000 -0.000001 -8.076691 -0.486728 -3.806304 -0.217566 -9.282896 106.046719 7.927451 -6.879204 98.121357 7.927444 -6.879216 98.121343 0.000003 0.000000 0.000002 4.570403 11.014671 -2.160815 1.118059 -3.712479 -1.773415 -30.691353 -10.997309 -51.627033 -0.000008 -122.545205 -0.000012 3.730324 -8.723916 18.287977 2.466101 -1.576200 2.681704 2.825241 10.329823 0.827371 6.817479 15.268502 2.201392 2.647884 -1.528756 1.528751 16.493901 15.543793 -13.682343 1.998917 -1.154091 1.154078 0.000005 -0.000004 -0.000000 9.109301 -0.518029 2.259907 2.622325 5.410009 -51.696250 5.986517 6.823210 -82.511670 3.423523 5.953151 -59.776033 -0.000000 -0.000000 -0.000001 9.533436 0.000005 0.000008 2.092834 4.947889 -46.064425 5.220648 6.678921 -76.003565 2.704708 5.473783 -52.565126 -0.000000 0.000004 -0.000001 9.104515 -0.042997 -1.865096 2.389437 5.219620 -50.118798 5.674797 6.775275 -79.879206 2.984455 5.676045 -55.444067 0.000001 0.000001 0.000002 8.077826 -0.486895 -3.806294 3.934097 6.575528 -48.514451 5.282877 2.607343 -76.579275 2.606518 5.397548 -51.528528 0.000000 -0.000000 -0.000002 -8.207804 -6.751705 -1.599544 -11.814568 -12.812827 -24.680769 52.774478 1.508506 -6.670274 -13.443042 -3.637217 21.617508 -11.221901 -0.285253 5.309819 0.000000 0.000001 -0.000000 8.207797 -6.751699 -1.599544 -40.240005 7.067025 21.801223 40.291624 -6.155545 6.418656 3.977657 0.281147 -16.321266 -3.596187 0.000001 0.000002 -0.000000 0.000001 0.000000 
